<svg width="166" height="57" viewBox="0 0 166 57" fill="none" xmlns="http://www.w3.org/2000/svg">
<rect y="0.525879" width="166" height="56.4742" rx="6.84536" fill="#9FA1B6"/>
<g clip-path="url(#clip0)">
<path d="M41.5343 29.7176C41.5035 26.2817 44.3405 24.6322 44.4689 24.5518C42.8724 22.2161 40.3879 21.8961 39.5015 21.8585C37.3883 21.6446 35.376 23.1024 34.3048 23.1024C33.2337 23.1024 31.5773 21.8893 29.8251 21.9235C27.5185 21.9577 25.395 23.2633 24.2075 25.3269C21.8137 29.4798 23.5967 35.6347 25.9272 39.0056C27.0685 40.6534 28.4271 42.5099 30.2136 42.4415C31.9349 42.373 32.5852 41.3293 34.6625 41.3293C36.7398 41.3293 37.325 42.4415 39.1439 42.409C40.9936 42.373 42.1674 40.7252 43.3002 39.0723C44.6075 37.1593 45.1482 35.3078 45.179 35.2103C45.1379 35.1932 41.5719 33.826 41.5343 29.7176Z" fill="black"/>
<path d="M38.117 19.6285C39.0649 18.4804 39.7049 16.8839 39.5286 15.2926C38.163 15.3474 36.5102 16.2029 35.5297 17.3511C34.6519 18.3658 33.8819 19.9914 34.0906 21.5502C35.6135 21.6683 37.1689 20.775 38.117 19.6285Z" fill="black"/>
</g>
<path d="M58.9557 13.5242H61.7486C61.9882 13.5242 62.2415 13.5516 62.5084 13.6063C62.7754 13.6611 63.0389 13.7501 63.2991 13.8733C63.566 13.9897 63.8193 14.1437 64.0589 14.3353C64.3053 14.527 64.521 14.7598 64.7058 15.0336C64.8906 15.3005 65.0378 15.612 65.1473 15.968C65.2568 16.3171 65.3116 16.7141 65.3116 17.1591C65.3116 17.604 65.2568 18.0045 65.1473 18.3604C65.0378 18.7095 64.8906 19.021 64.7058 19.2948C64.521 19.5618 64.3053 19.7911 64.0589 19.9828C63.8193 20.1744 63.566 20.3319 63.2991 20.4551C63.0389 20.5715 62.7754 20.657 62.5084 20.7118C62.2415 20.7666 61.9882 20.7939 61.7486 20.7939H58.9557V13.5242ZM59.8182 19.993H61.4611C61.8786 19.993 62.2654 19.9383 62.6214 19.8287C62.9773 19.7192 63.2854 19.5515 63.5455 19.3256C63.8056 19.0929 64.011 18.7985 64.1616 18.4426C64.3122 18.0866 64.3875 17.6588 64.3875 17.1591C64.3875 16.6593 64.3122 16.2315 64.1616 15.8756C64.011 15.5196 63.8056 15.2287 63.5455 15.0028C63.2854 14.77 62.9773 14.5989 62.6214 14.4894C62.2654 14.3798 61.8786 14.3251 61.4611 14.3251H59.8182V19.993ZM66.279 18.3912C66.279 18.0147 66.344 17.6725 66.4741 17.3644C66.6041 17.0564 66.7821 16.7928 67.008 16.5738C67.2339 16.3479 67.5043 16.1733 67.8192 16.0501C68.1341 15.9269 68.4763 15.8653 68.846 15.8653C69.2156 15.8653 69.5579 15.9269 69.8728 16.0501C70.1877 16.1733 70.4581 16.3479 70.6839 16.5738C70.9098 16.7928 71.0878 17.0564 71.2179 17.3644C71.348 17.6725 71.413 18.0147 71.413 18.3912C71.413 18.7677 71.348 19.11 71.2179 19.418C71.0878 19.7261 70.9098 19.993 70.6839 20.2189C70.4581 20.438 70.1877 20.6091 69.8728 20.7323C69.5579 20.8556 69.2156 20.9172 68.846 20.9172C68.4763 20.9172 68.1341 20.8556 67.8192 20.7323C67.5043 20.6091 67.2339 20.438 67.008 20.2189C66.7821 19.993 66.6041 19.7261 66.4741 19.418C66.344 19.11 66.279 18.7677 66.279 18.3912ZM67.1415 18.3912C67.1415 18.6445 67.1791 18.8807 67.2544 19.0997C67.3366 19.3119 67.4529 19.5002 67.6035 19.6645C67.7541 19.8219 67.9321 19.9485 68.1375 20.0444C68.3497 20.1334 68.5858 20.1779 68.846 20.1779C69.1061 20.1779 69.3388 20.1334 69.5442 20.0444C69.7564 19.9485 69.9378 19.8219 70.0884 19.6645C70.239 19.5002 70.352 19.3119 70.4272 19.0997C70.5094 18.8807 70.5505 18.6445 70.5505 18.3912C70.5505 18.1379 70.5094 17.9052 70.4272 17.693C70.352 17.4739 70.239 17.2857 70.0884 17.1283C69.9378 16.964 69.7564 16.8373 69.5442 16.7483C69.3388 16.6525 69.1061 16.6046 68.846 16.6046C68.5858 16.6046 68.3497 16.6525 68.1375 16.7483C67.9321 16.8373 67.7541 16.964 67.6035 17.1283C67.4529 17.2857 67.3366 17.4739 67.2544 17.693C67.1791 17.9052 67.1415 18.1379 67.1415 18.3912ZM77.8074 20.7939H77.0168L75.6511 17.0975H75.6306L74.4189 20.7939H73.5975L72.0368 15.9885H72.9198L74.0185 19.685H74.039L75.2815 15.9885H76.1234L77.3864 19.685H77.4069L78.4954 15.9885H79.3579L77.8074 20.7939ZM80.2636 17.1283C80.2636 16.9092 80.2568 16.7038 80.2431 16.5122C80.2294 16.3205 80.2226 16.1459 80.2226 15.9885H80.9824C80.9824 16.1186 80.9858 16.2486 80.9927 16.3787C80.9995 16.5087 81.0029 16.6422 81.0029 16.7791H81.0235C81.0782 16.6628 81.1535 16.5498 81.2494 16.4403C81.352 16.3308 81.4718 16.2349 81.6087 16.1528C81.7457 16.0638 81.8997 15.9953 82.0708 15.9474C82.2419 15.8927 82.4268 15.8653 82.6253 15.8653C82.9402 15.8653 83.2106 15.9132 83.4365 16.009C83.6692 16.1049 83.8609 16.2384 84.0115 16.4095C84.1621 16.5806 84.2716 16.7894 84.34 17.0358C84.4153 17.2754 84.453 17.539 84.453 17.8265V20.7939H83.6521V17.9086C83.6521 17.5047 83.5631 17.1864 83.3851 16.9537C83.2071 16.721 82.9299 16.6046 82.5534 16.6046C82.2933 16.6046 82.0674 16.6491 81.8757 16.7381C81.6909 16.8271 81.5369 16.9537 81.4137 17.118C81.2973 17.2823 81.2083 17.4774 81.1467 17.7033C81.0919 17.9292 81.0645 18.179 81.0645 18.4528V20.7939H80.2636V17.1283ZM86.0411 13.0313H86.842V20.7939H86.0411V13.0313ZM88.1587 18.3912C88.1587 18.0147 88.2237 17.6725 88.3538 17.3644C88.4839 17.0564 88.6618 16.7928 88.8877 16.5738C89.1136 16.3479 89.384 16.1733 89.6989 16.0501C90.0138 15.9269 90.3561 15.8653 90.7257 15.8653C91.0954 15.8653 91.4376 15.9269 91.7525 16.0501C92.0674 16.1733 92.3378 16.3479 92.5637 16.5738C92.7896 16.7928 92.9676 17.0564 93.0976 17.3644C93.2277 17.6725 93.2927 18.0147 93.2927 18.3912C93.2927 18.7677 93.2277 19.11 93.0976 19.418C92.9676 19.7261 92.7896 19.993 92.5637 20.2189C92.3378 20.438 92.0674 20.6091 91.7525 20.7323C91.4376 20.8556 91.0954 20.9172 90.7257 20.9172C90.3561 20.9172 90.0138 20.8556 89.6989 20.7323C89.384 20.6091 89.1136 20.438 88.8877 20.2189C88.6618 19.993 88.4839 19.7261 88.3538 19.418C88.2237 19.11 88.1587 18.7677 88.1587 18.3912ZM89.0212 18.3912C89.0212 18.6445 89.0589 18.8807 89.1342 19.0997C89.2163 19.3119 89.3327 19.5002 89.4833 19.6645C89.6339 19.8219 89.8119 19.9485 90.0172 20.0444C90.2294 20.1334 90.4656 20.1779 90.7257 20.1779C90.9858 20.1779 91.2186 20.1334 91.424 20.0444C91.6362 19.9485 91.8176 19.8219 91.9682 19.6645C92.1188 19.5002 92.2317 19.3119 92.307 19.0997C92.3891 18.8807 92.4302 18.6445 92.4302 18.3912C92.4302 18.1379 92.3891 17.9052 92.307 17.693C92.2317 17.4739 92.1188 17.2857 91.9682 17.1283C91.8176 16.964 91.6362 16.8373 91.424 16.7483C91.2186 16.6525 90.9858 16.6046 90.7257 16.6046C90.4656 16.6046 90.2294 16.6525 90.0172 16.7483C89.8119 16.8373 89.6339 16.964 89.4833 17.1283C89.3327 17.2857 89.2163 17.4739 89.1342 17.693C89.0589 17.9052 89.0212 18.1379 89.0212 18.3912ZM94.471 16.6046C94.7174 16.3513 95.0084 16.1665 95.3438 16.0501C95.686 15.9269 96.0317 15.8653 96.3808 15.8653C97.0928 15.8653 97.6062 16.033 97.9211 16.3684C98.2359 16.7038 98.3934 17.2138 98.3934 17.8984V19.9622C98.3934 20.0991 98.4002 20.2429 98.4139 20.3935C98.4276 20.5372 98.4447 20.6707 98.4653 20.7939H97.6952C97.6678 20.6844 97.6507 20.5646 97.6438 20.4346C97.6438 20.2977 97.6438 20.1779 97.6438 20.0752H97.6233C97.4658 20.3216 97.2536 20.5236 96.9867 20.681C96.7265 20.8384 96.4116 20.9172 96.042 20.9172C95.7956 20.9172 95.5628 20.8864 95.3438 20.8247C95.1316 20.7631 94.9433 20.6742 94.779 20.5578C94.6216 20.4346 94.4949 20.284 94.3991 20.106C94.3033 19.928 94.2554 19.7226 94.2554 19.4899C94.2554 19.0929 94.358 18.7814 94.5634 18.5555C94.7688 18.3296 95.022 18.1619 95.3232 18.0524C95.6313 17.9429 95.9599 17.8744 96.309 17.847C96.6649 17.8196 96.9901 17.8059 97.2844 17.8059H97.5925V17.6622C97.5925 17.3131 97.4864 17.0495 97.2742 16.8716C97.0688 16.6936 96.7779 16.6046 96.4014 16.6046C96.1413 16.6046 95.8846 16.6491 95.6313 16.7381C95.3848 16.8202 95.1658 16.9503 94.9741 17.1283L94.471 16.6046ZM96.7916 18.4836C96.2782 18.4836 95.8709 18.5555 95.5697 18.6993C95.2685 18.843 95.1179 19.0792 95.1179 19.4078C95.1179 19.709 95.2171 19.9246 95.4156 20.0546C95.621 20.1779 95.8743 20.2395 96.1755 20.2395C96.4082 20.2395 96.6102 20.2018 96.7813 20.1265C96.9593 20.0444 97.1065 19.9383 97.2228 19.8082C97.3392 19.6782 97.4282 19.5276 97.4898 19.3564C97.5514 19.1784 97.5856 18.9902 97.5925 18.7917V18.4836H96.7916ZM103.851 19.9417H103.831C103.68 20.2155 103.441 20.4483 103.112 20.6399C102.79 20.8247 102.414 20.9172 101.983 20.9172C101.647 20.9172 101.332 20.8556 101.038 20.7323C100.744 20.6023 100.487 20.4243 100.268 20.1984C100.056 19.9725 99.8879 19.7055 99.7647 19.3975C99.6415 19.0895 99.5799 18.754 99.5799 18.3912C99.5799 18.0284 99.6415 17.693 99.7647 17.385C99.8879 17.0769 100.059 16.8099 100.278 16.584C100.497 16.3582 100.761 16.1836 101.069 16.0604C101.384 15.9303 101.729 15.8653 102.106 15.8653C102.455 15.8653 102.773 15.9372 103.061 16.0809C103.355 16.2247 103.612 16.4266 103.831 16.6867H103.851V13.0313H104.652V20.7939H103.851V19.9417ZM103.851 18.3912C103.851 18.1379 103.81 17.9052 103.728 17.693C103.653 17.4739 103.54 17.2857 103.389 17.1283C103.239 16.964 103.057 16.8373 102.845 16.7483C102.64 16.6525 102.407 16.6046 102.147 16.6046C101.887 16.6046 101.651 16.6525 101.438 16.7483C101.233 16.8373 101.055 16.964 100.904 17.1283C100.754 17.2857 100.638 17.4739 100.555 17.693C100.48 17.9052 100.442 18.1379 100.442 18.3912C100.442 18.6445 100.48 18.8807 100.555 19.0997C100.638 19.3119 100.754 19.5002 100.904 19.6645C101.055 19.8219 101.233 19.9485 101.438 20.0444C101.651 20.1334 101.887 20.1779 102.147 20.1779C102.407 20.1779 102.64 20.1334 102.845 20.0444C103.057 19.9485 103.239 19.8219 103.389 19.6645C103.54 19.5002 103.653 19.3119 103.728 19.0997C103.81 18.8807 103.851 18.6445 103.851 18.3912ZM108.715 18.3912C108.715 18.0147 108.78 17.6725 108.91 17.3644C109.04 17.0564 109.218 16.7928 109.444 16.5738C109.67 16.3479 109.94 16.1733 110.255 16.0501C110.57 15.9269 110.912 15.8653 111.282 15.8653C111.652 15.8653 111.994 15.9269 112.309 16.0501C112.624 16.1733 112.894 16.3479 113.12 16.5738C113.346 16.7928 113.524 17.0564 113.654 17.3644C113.784 17.6725 113.849 18.0147 113.849 18.3912C113.849 18.7677 113.784 19.11 113.654 19.418C113.524 19.7261 113.346 19.993 113.12 20.2189C112.894 20.438 112.624 20.6091 112.309 20.7323C111.994 20.8556 111.652 20.9172 111.282 20.9172C110.912 20.9172 110.57 20.8556 110.255 20.7323C109.94 20.6091 109.67 20.438 109.444 20.2189C109.218 19.993 109.04 19.7261 108.91 19.418C108.78 19.11 108.715 18.7677 108.715 18.3912ZM109.577 18.3912C109.577 18.6445 109.615 18.8807 109.69 19.0997C109.772 19.3119 109.889 19.5002 110.039 19.6645C110.19 19.8219 110.368 19.9485 110.573 20.0444C110.786 20.1334 111.022 20.1779 111.282 20.1779C111.542 20.1779 111.775 20.1334 111.98 20.0444C112.192 19.9485 112.374 19.8219 112.524 19.6645C112.675 19.5002 112.788 19.3119 112.863 19.0997C112.945 18.8807 112.986 18.6445 112.986 18.3912C112.986 18.1379 112.945 17.9052 112.863 17.693C112.788 17.4739 112.675 17.2857 112.524 17.1283C112.374 16.964 112.192 16.8373 111.98 16.7483C111.775 16.6525 111.542 16.6046 111.282 16.6046C111.022 16.6046 110.786 16.6525 110.573 16.7483C110.368 16.8373 110.19 16.964 110.039 17.1283C109.889 17.2857 109.772 17.4739 109.69 17.693C109.615 17.9052 109.577 18.1379 109.577 18.3912ZM115.089 17.1283C115.089 16.9092 115.082 16.7038 115.068 16.5122C115.055 16.3205 115.048 16.1459 115.048 15.9885H115.808C115.808 16.1186 115.811 16.2486 115.818 16.3787C115.825 16.5087 115.828 16.6422 115.828 16.7791H115.849C115.903 16.6628 115.979 16.5498 116.074 16.4403C116.177 16.3308 116.297 16.2349 116.434 16.1528C116.571 16.0638 116.725 15.9953 116.896 15.9474C117.067 15.8927 117.252 15.8653 117.45 15.8653C117.765 15.8653 118.036 15.9132 118.262 16.009C118.494 16.1049 118.686 16.2384 118.837 16.4095C118.987 16.5806 119.097 16.7894 119.165 17.0358C119.24 17.2754 119.278 17.539 119.278 17.8265V20.7939H118.477V17.9086C118.477 17.5047 118.388 17.1864 118.21 16.9537C118.032 16.721 117.755 16.6046 117.379 16.6046C117.118 16.6046 116.892 16.6491 116.701 16.7381C116.516 16.8271 116.362 16.9537 116.239 17.118C116.122 17.2823 116.033 17.4774 115.972 17.7033C115.917 17.9292 115.89 18.179 115.89 18.4528V20.7939H115.089V17.1283ZM126.281 16.6662H124.864V19.0689C124.864 19.2264 124.867 19.3735 124.874 19.5104C124.881 19.6405 124.908 19.7569 124.956 19.8596C125.004 19.9554 125.076 20.0341 125.172 20.0957C125.268 20.1505 125.405 20.1779 125.583 20.1779C125.699 20.1779 125.819 20.1642 125.942 20.1368C126.065 20.1094 126.181 20.0683 126.291 20.0136L126.322 20.7426C126.185 20.8042 126.031 20.8487 125.86 20.8761C125.695 20.9035 125.538 20.9172 125.387 20.9172C125.1 20.9172 124.871 20.8795 124.699 20.8042C124.528 20.7289 124.395 20.6228 124.299 20.4859C124.203 20.349 124.138 20.1813 124.104 19.9828C124.077 19.7774 124.063 19.5515 124.063 19.3051V16.6662H123.016V15.9885H124.063V14.6229H124.864V15.9885H126.281V16.6662ZM127.272 13.0313H128.073V16.6559H128.093C128.148 16.5601 128.224 16.4677 128.319 16.3787C128.415 16.2829 128.528 16.1973 128.658 16.122C128.795 16.0467 128.946 15.9851 129.11 15.9372C129.274 15.8892 129.449 15.8653 129.634 15.8653C129.949 15.8653 130.219 15.9132 130.445 16.009C130.678 16.1049 130.869 16.2384 131.02 16.4095C131.17 16.5806 131.28 16.7894 131.348 17.0358C131.424 17.2754 131.461 17.539 131.461 17.8265V20.7939H130.66V17.9086C130.66 17.5047 130.571 17.1864 130.393 16.9537C130.216 16.721 129.938 16.6046 129.562 16.6046C129.302 16.6046 129.076 16.6491 128.884 16.7381C128.699 16.8271 128.545 16.9537 128.422 17.118C128.306 17.2823 128.217 17.4774 128.155 17.7033C128.1 17.9292 128.073 18.179 128.073 18.4528V20.7939H127.272V13.0313ZM137.27 19.9212C136.982 20.2908 136.667 20.5509 136.325 20.7015C135.983 20.8453 135.586 20.9172 135.134 20.9172C134.757 20.9172 134.419 20.8521 134.117 20.7221C133.816 20.5852 133.559 20.4038 133.347 20.1779C133.142 19.952 132.981 19.685 132.865 19.377C132.755 19.0689 132.7 18.7403 132.7 18.3912C132.7 18.0216 132.762 17.6827 132.885 17.3747C133.008 17.0598 133.18 16.7928 133.399 16.5738C133.618 16.3479 133.878 16.1733 134.179 16.0501C134.48 15.9269 134.809 15.8653 135.165 15.8653C135.5 15.8653 135.808 15.9235 136.089 16.0398C136.369 16.1494 136.609 16.3137 136.808 16.5327C137.013 16.7449 137.17 17.0085 137.28 17.3233C137.389 17.6314 137.444 17.9839 137.444 18.381V18.6377H133.563C133.577 18.843 133.624 19.0415 133.707 19.2332C133.796 19.418 133.909 19.5823 134.045 19.7261C134.182 19.863 134.343 19.9725 134.528 20.0546C134.713 20.1368 134.915 20.1779 135.134 20.1779C135.483 20.1779 135.777 20.1163 136.017 19.993C136.257 19.8698 136.472 19.6884 136.664 19.4488L137.27 19.9212ZM136.582 17.96C136.568 17.5492 136.435 17.2207 136.181 16.9742C135.928 16.7278 135.579 16.6046 135.134 16.6046C134.689 16.6046 134.33 16.7278 134.056 16.9742C133.782 17.2207 133.618 17.5492 133.563 17.96H136.582Z" fill="black"/>
<path d="M63.193 28.9741H64.9651L69.9237 40.4846H67.5825L66.5095 37.8509H61.5184L60.4779 40.4846H58.1856L63.193 28.9741ZM65.7942 36.095L64.0221 31.4128L62.2175 36.095H65.7942ZM71.024 32.6809H72.8774V33.8515H72.9099C73.1917 33.3746 73.571 33.0277 74.0479 32.811C74.5248 32.5942 75.0396 32.4858 75.5924 32.4858C76.1885 32.4858 76.725 32.5942 77.2019 32.811C77.6788 33.0169 78.0853 33.3041 78.4212 33.6726C78.7572 34.0411 79.0119 34.4747 79.1854 34.9732C79.3588 35.4718 79.4455 36.0083 79.4455 36.5828C79.4455 37.1572 79.3534 37.6937 79.1691 38.1923C78.9848 38.6908 78.7247 39.1244 78.3887 39.4929C78.0636 39.8614 77.668 40.154 77.2019 40.3708C76.7359 40.5767 76.2265 40.6797 75.6737 40.6797C75.3052 40.6797 74.98 40.6418 74.6982 40.5659C74.4164 40.49 74.1671 40.3925 73.9504 40.2733C73.7336 40.154 73.5493 40.0294 73.3976 39.8993C73.2459 39.7584 73.1212 39.623 73.0237 39.4929H72.9749V44.1914H71.024V32.6809ZM77.4946 36.5828C77.4946 36.2793 77.4404 35.9866 77.332 35.7048C77.2344 35.423 77.0827 35.1738 76.8768 34.957C76.6817 34.7402 76.4432 34.5668 76.1614 34.4367C75.8796 34.3067 75.5599 34.2416 75.2022 34.2416C74.8445 34.2416 74.5248 34.3067 74.243 34.4367C73.9612 34.5668 73.7173 34.7402 73.5114 34.957C73.3163 35.1738 73.1646 35.423 73.0562 35.7048C72.9586 35.9866 72.9099 36.2793 72.9099 36.5828C72.9099 36.8862 72.9586 37.1789 73.0562 37.4607C73.1646 37.7425 73.3163 37.9918 73.5114 38.2085C73.7173 38.4253 73.9612 38.5987 74.243 38.7288C74.5248 38.8588 74.8445 38.9239 75.2022 38.9239C75.5599 38.9239 75.8796 38.8588 76.1614 38.7288C76.4432 38.5987 76.6817 38.4253 76.8768 38.2085C77.0827 37.9918 77.2344 37.7425 77.332 37.4607C77.4404 37.1789 77.4946 36.8862 77.4946 36.5828ZM81.2644 32.6809H83.1178V33.8515H83.1503C83.4321 33.3746 83.8115 33.0277 84.2884 32.811C84.7653 32.5942 85.2801 32.4858 85.8329 32.4858C86.429 32.4858 86.9655 32.5942 87.4424 32.811C87.9193 33.0169 88.3257 33.3041 88.6617 33.6726C88.9977 34.0411 89.2524 34.4747 89.4258 34.9732C89.5992 35.4718 89.6859 36.0083 89.6859 36.5828C89.6859 37.1572 89.5938 37.6937 89.4096 38.1923C89.2253 38.6908 88.9652 39.1244 88.6292 39.4929C88.304 39.8614 87.9084 40.154 87.4424 40.3708C86.9763 40.5767 86.4669 40.6797 85.9142 40.6797C85.5456 40.6797 85.2205 40.6418 84.9387 40.5659C84.6569 40.49 84.4076 40.3925 84.1908 40.2733C83.9741 40.154 83.7898 40.0294 83.6381 39.8993C83.4863 39.7584 83.3617 39.623 83.2641 39.4929H83.2154V44.1914H81.2644V32.6809ZM87.735 36.5828C87.735 36.2793 87.6808 35.9866 87.5724 35.7048C87.4749 35.423 87.3232 35.1738 87.1172 34.957C86.9221 34.7402 86.6837 34.5668 86.4019 34.4367C86.1201 34.3067 85.8004 34.2416 85.4427 34.2416C85.085 34.2416 84.7653 34.3067 84.4835 34.4367C84.2017 34.5668 83.9578 34.7402 83.7519 34.957C83.5568 35.1738 83.405 35.423 83.2967 35.7048C83.1991 35.9866 83.1503 36.2793 83.1503 36.5828C83.1503 36.8862 83.1991 37.1789 83.2967 37.4607C83.405 37.7425 83.5568 37.9918 83.7519 38.2085C83.9578 38.4253 84.2017 38.5987 84.4835 38.7288C84.7653 38.8588 85.085 38.9239 85.4427 38.9239C85.8004 38.9239 86.1201 38.8588 86.4019 38.7288C86.6837 38.5987 86.9221 38.4253 87.1172 38.2085C87.3232 37.9918 87.4749 37.7425 87.5724 37.4607C87.6808 37.1789 87.735 36.8862 87.735 36.5828ZM102.136 31.4453C101.919 31.131 101.626 30.9034 101.258 30.7625C100.9 30.6108 100.521 30.5349 100.12 30.5349C99.8814 30.5349 99.6484 30.562 99.4208 30.6162C99.204 30.6704 99.0035 30.7571 98.8192 30.8763C98.6458 30.9955 98.5049 31.1527 98.3965 31.3478C98.2882 31.532 98.234 31.7542 98.234 32.0143C98.234 32.4045 98.3694 32.7026 98.6404 32.9085C98.9114 33.1144 99.2474 33.2933 99.6484 33.445C100.049 33.5968 100.488 33.7431 100.965 33.884C101.442 34.0249 101.881 34.22 102.282 34.4693C102.683 34.7185 103.019 35.0491 103.29 35.461C103.561 35.8728 103.697 36.4202 103.697 37.103C103.697 37.7208 103.583 38.2627 103.355 38.7288C103.128 39.184 102.819 39.5633 102.428 39.8668C102.049 40.1703 101.605 40.3979 101.095 40.5497C100.586 40.7014 100.049 40.7773 99.4858 40.7773C98.7705 40.7773 98.0822 40.658 97.4211 40.4196C96.7599 40.1811 96.1909 39.7801 95.714 39.2165L97.2585 37.7208C97.5078 38.1002 97.8329 38.3982 98.234 38.615C98.6458 38.8209 99.0794 38.9239 99.5346 38.9239C99.773 38.9239 100.011 38.8914 100.25 38.8263C100.488 38.7613 100.705 38.6638 100.9 38.5337C101.095 38.4036 101.252 38.2411 101.372 38.046C101.491 37.84 101.551 37.607 101.551 37.3469C101.551 36.9242 101.415 36.599 101.144 36.3714C100.873 36.1438 100.537 35.9541 100.136 35.8024C99.7351 35.6398 99.2961 35.4881 98.8192 35.3472C98.3423 35.2063 97.9034 35.0166 97.5024 34.7782C97.1013 34.5289 96.7653 34.2037 96.4944 33.8027C96.2234 33.3908 96.0879 32.8435 96.0879 32.1607C96.0879 31.5645 96.2072 31.0497 96.4456 30.6162C96.6949 30.1826 97.0146 29.825 97.4048 29.5432C97.8058 29.2505 98.2611 29.0338 98.7705 28.8929C99.2799 28.752 99.8001 28.6815 100.331 28.6815C100.938 28.6815 101.523 28.7736 102.087 28.9579C102.661 29.1421 103.176 29.4456 103.632 29.8683L102.136 31.4453ZM104.741 34.3392V32.6809H106.35V30.4211H108.301V32.6809H110.447V34.3392H108.301V37.7533C108.301 38.1435 108.372 38.4524 108.512 38.68C108.664 38.9076 108.957 39.0214 109.39 39.0214C109.564 39.0214 109.753 39.0052 109.959 38.9726C110.165 38.9293 110.328 38.8643 110.447 38.7776V40.4196C110.241 40.5171 109.986 40.5822 109.683 40.6147C109.39 40.658 109.13 40.6797 108.903 40.6797C108.382 40.6797 107.954 40.6201 107.618 40.5009C107.293 40.3925 107.033 40.2245 106.838 39.9969C106.654 39.7584 106.524 39.4658 106.448 39.119C106.383 38.7721 106.35 38.3711 106.35 37.9159V34.3392H104.741ZM111.58 36.5828C111.58 35.965 111.688 35.4068 111.905 34.9082C112.133 34.3988 112.436 33.9653 112.815 33.6076C113.195 33.2499 113.645 32.9735 114.165 32.7785C114.685 32.5834 115.238 32.4858 115.823 32.4858C116.408 32.4858 116.961 32.5834 117.481 32.7785C118.002 32.9735 118.451 33.2499 118.831 33.6076C119.21 33.9653 119.508 34.3988 119.725 34.9082C119.953 35.4068 120.066 35.965 120.066 36.5828C120.066 37.2006 119.953 37.7642 119.725 38.2736C119.508 38.7721 119.21 39.2003 118.831 39.5579C118.451 39.9156 118.002 40.192 117.481 40.3871C116.961 40.5822 116.408 40.6797 115.823 40.6797C115.238 40.6797 114.685 40.5822 114.165 40.3871C113.645 40.192 113.195 39.9156 112.815 39.5579C112.436 39.2003 112.133 38.7721 111.905 38.2736C111.688 37.7642 111.58 37.2006 111.58 36.5828ZM113.531 36.5828C113.531 36.8862 113.579 37.1789 113.677 37.4607C113.785 37.7425 113.937 37.9918 114.132 38.2085C114.338 38.4253 114.582 38.5987 114.864 38.7288C115.146 38.8588 115.465 38.9239 115.823 38.9239C116.181 38.9239 116.5 38.8588 116.782 38.7288C117.064 38.5987 117.303 38.4253 117.498 38.2085C117.704 37.9918 117.855 37.7425 117.953 37.4607C118.061 37.1789 118.115 36.8862 118.115 36.5828C118.115 36.2793 118.061 35.9866 117.953 35.7048C117.855 35.423 117.704 35.1738 117.498 34.957C117.303 34.7402 117.064 34.5668 116.782 34.4367C116.5 34.3067 116.181 34.2416 115.823 34.2416C115.465 34.2416 115.146 34.3067 114.864 34.4367C114.582 34.5668 114.338 34.7402 114.132 34.957C113.937 35.1738 113.785 35.423 113.677 35.7048C113.579 35.9866 113.531 36.2793 113.531 36.5828ZM121.893 32.6809H123.844V33.9165H123.876C124.093 33.4613 124.402 33.109 124.803 32.8597C125.204 32.6105 125.665 32.4858 126.185 32.4858C126.304 32.4858 126.418 32.4967 126.526 32.5183C126.646 32.54 126.765 32.5671 126.884 32.5996V34.4855C126.721 34.4422 126.559 34.4096 126.396 34.388C126.245 34.3555 126.093 34.3392 125.941 34.3392C125.486 34.3392 125.117 34.4259 124.836 34.5993C124.565 34.7619 124.353 34.9516 124.201 35.1683C124.061 35.3851 123.963 35.6019 123.909 35.8186C123.866 36.0354 123.844 36.198 123.844 36.3064V40.4846H121.893V32.6809ZM129.487 37.2656C129.552 37.8509 129.779 38.3061 130.17 38.6312C130.56 38.9564 131.031 39.119 131.584 39.119C132.072 39.119 132.478 39.0214 132.803 38.8263C133.139 38.6204 133.432 38.3657 133.681 38.0622L135.079 39.119C134.624 39.6826 134.115 40.0836 133.551 40.322C132.988 40.5605 132.397 40.6797 131.779 40.6797C131.194 40.6797 130.641 40.5822 130.121 40.3871C129.601 40.192 129.151 39.9156 128.771 39.5579C128.392 39.2003 128.089 38.7721 127.861 38.2736C127.644 37.7642 127.536 37.2006 127.536 36.5828C127.536 35.965 127.644 35.4068 127.861 34.9082C128.089 34.3988 128.392 33.9653 128.771 33.6076C129.151 33.2499 129.601 32.9735 130.121 32.7785C130.641 32.5834 131.194 32.4858 131.779 32.4858C132.321 32.4858 132.814 32.5834 133.259 32.7785C133.714 32.9627 134.099 33.2337 134.413 33.5913C134.738 33.949 134.987 34.3934 135.161 34.9245C135.345 35.4447 135.437 36.0463 135.437 36.7291V37.2656H129.487ZM133.486 35.8024C133.475 35.228 133.297 34.7782 132.95 34.453C132.603 34.117 132.121 33.949 131.503 33.949C130.917 33.949 130.451 34.117 130.105 34.453C129.769 34.789 129.563 35.2388 129.487 35.8024H133.486Z" fill="black"/>
<rect opacity="0.6" y="0.525879" width="166" height="56.4742" rx="6.84536" fill="#ECF0F1"/>
<defs>
<clipPath id="clip0">
<rect width="27.3814" height="27.3814" fill="white" transform="translate(20.5361 15.0723)"/>
</clipPath>
</defs>
</svg>
