<svg width="890" height="799" viewBox="0 0 890 799" fill="none" xmlns="http://www.w3.org/2000/svg">
<path opacity="0.05" d="M447.569 177.075C468.985 177.075 487.948 183.994 504.456 197.833C521.411 211.225 536.358 235.553 549.297 270.819L620.239 459.646H630.948L712.224 199.841C719.685 173.715 733.417 142.863 752.068 123.196C776.955 96.9536 810.602 87.7143 849.798 108.106C909.3 139.063 890.21 217.038 871.603 270.819L732.676 664.543C722.414 690.88 713.044 711.191 704.567 725.476C696.536 739.315 688.505 749.582 680.473 756.278C672.442 762.527 664.411 766.322 656.38 767.661C648.349 768.554 639.871 769 630.948 769C621.132 769 611.762 768.554 602.839 767.661C594.361 766.322 585.661 762.527 576.737 756.278C568.26 749.582 559.559 739.315 550.636 725.476C541.712 711.191 532.343 690.88 522.527 664.543L452.923 455.379H442.215L369.934 664.543C360.118 690.88 350.971 711.191 342.494 725.476C334.463 739.315 326.432 749.582 318.4 756.278C310.815 762.527 303.007 766.322 294.976 767.661C286.945 768.554 278.467 769 269.544 769C259.728 769 250.358 768.554 241.435 767.661C232.957 766.322 224.257 762.527 215.333 756.278C206.856 749.582 198.156 739.315 189.232 725.476C180.308 711.191 170.939 690.88 161.123 664.543L18.9269 270.819C-1.16749 217.207 -20.0882 136.53 45.3398 107.437C79.7524 92.1348 114.387 99.8516 138.46 123.196C157.231 141.398 167.831 169.755 178.306 199.841L270.882 459.646H281.591L343.163 270.819C354.318 235.553 369.042 211.225 387.335 197.833C406.074 183.994 426.152 177.075 447.569 177.075Z" fill="#713AEF"/>
<g filter="url(#filter0_f)">
<circle cx="442.5" cy="378.5" r="170.5" fill="#C535F8"/>
</g>
<defs>
<filter id="filter0_f" x="22" y="-42" width="841" height="841" filterUnits="userSpaceOnUse" color-interpolation-filters="sRGB">
<feFlood flood-opacity="0" result="BackgroundImageFix"/>
<feBlend mode="normal" in="SourceGraphic" in2="BackgroundImageFix" result="shape"/>
<feGaussianBlur stdDeviation="125" result="effect1_foregroundBlur"/>
</filter>
</defs>
</svg>
