<svg width="115" height="53" viewBox="0 0 115 53" fill="none" xmlns="http://www.w3.org/2000/svg">
<path d="M25.0952 19.5518C26.296 19.5518 27.3592 19.9396 28.2849 20.7151C29.2355 21.4656 30.0736 22.829 30.7991 24.8054L34.7768 35.3877H35.3772L39.9344 20.8277C40.3527 19.3635 41.1227 17.6345 42.1685 16.5323C43.5639 15.0616 45.4504 14.5438 47.6482 15.6866C50.9844 17.4215 49.9141 21.7914 48.8708 24.8054L41.0812 46.8706C40.5058 48.3466 39.9804 49.4849 39.5051 50.2854C39.0548 51.0609 38.6045 51.6363 38.1542 52.0116C37.7038 52.3618 37.2535 52.5745 36.8032 52.6495C36.3529 52.6996 35.8776 52.7246 35.3772 52.7246C34.8269 52.7246 34.3015 52.6996 33.8012 52.6495C33.3258 52.5745 32.838 52.3618 32.3377 52.0116C31.8623 51.6363 31.3745 51.0609 30.8742 50.2854C30.3738 49.4849 29.8484 48.3466 29.2981 46.8706L25.3954 35.1486H24.795L20.7422 46.8706C20.1918 48.3466 19.679 49.4849 19.2036 50.2854C18.7533 51.0609 18.303 51.6363 17.8527 52.0116C17.4274 52.3618 16.9896 52.5745 16.5393 52.6495C16.089 52.6996 15.6137 52.7246 15.1133 52.7246C14.563 52.7246 14.0376 52.6996 13.5373 52.6495C13.0619 52.5745 12.5741 52.3618 12.0737 52.0116C11.5984 51.6363 11.1106 51.0609 10.6102 50.2854C10.1099 49.4849 9.58454 48.3466 9.03416 46.8706L1.06123 24.8054C-0.065461 21.8009 -1.12635 17.2796 2.5422 15.6491C4.47172 14.7916 6.41367 15.224 7.76347 16.5323C8.81594 17.5524 9.41031 19.1416 9.9976 20.8277L15.1884 35.3877H15.7888L19.2412 24.8054C19.8666 22.829 20.6922 21.4656 21.7179 20.7151C22.7686 19.9396 23.8944 19.5518 25.0952 19.5518Z" fill="url(#paint0_linear)"/>
<path d="M57.8857 23.6046C57.8857 22.5539 57.9358 21.5282 58.0358 20.5275C58.1609 19.5268 58.4236 18.6387 58.8239 17.8631C59.2241 17.0626 59.7995 16.4247 60.5501 15.9493C61.3006 15.449 62.3138 15.1988 63.5896 15.1988C64.8655 15.1988 65.8787 15.449 66.6292 15.9493C67.3798 16.4247 67.9551 17.0626 68.3554 17.8631C68.7557 18.6387 69.0059 19.5268 69.1059 20.5275C69.231 21.5282 69.2936 22.5539 69.2936 23.6046V44.3188C69.2936 45.3695 69.231 46.4077 69.1059 47.4334C69.0059 48.4341 68.7557 49.3348 68.3554 50.1353C67.9551 50.9108 67.3798 51.5363 66.6292 52.0116C65.8787 52.4869 64.8655 52.7246 63.5896 52.7246C62.3138 52.7246 61.3006 52.4869 60.5501 52.0116C59.7995 51.5363 59.2241 50.9108 58.8239 50.1353C58.4236 49.3348 58.1609 48.4341 58.0358 47.4334C57.9358 46.4077 57.8857 45.3695 57.8857 44.3188V23.6046Z" fill="url(#paint1_linear)"/>
<path d="M80.8515 8.51922C80.8515 7.4685 80.9015 6.4428 81.0016 5.44211C81.1267 4.44142 81.3894 3.55331 81.7896 2.77778C82.1899 2.00225 82.7653 1.37682 83.5158 0.901491C84.2663 0.426165 85.2795 0.188502 86.5554 0.188502C87.8563 0.188502 88.882 0.426165 89.6325 0.901491C90.383 1.37682 90.9459 2.00225 91.3212 2.77778C91.7215 3.55331 91.9716 4.44142 92.0717 5.44211C92.1968 6.4428 92.2593 7.4685 92.2593 8.51922V44.3188C92.2593 45.3695 92.1968 46.4077 92.0717 47.4334C91.9716 48.4341 91.7215 49.3348 91.3212 50.1353C90.9459 50.9108 90.383 51.5363 89.6325 52.0116C88.882 52.4869 87.8563 52.7246 86.5554 52.7246C85.2795 52.7246 84.2663 52.4869 83.5158 52.0116C82.7653 51.5363 82.1899 50.9108 81.7896 50.1353C81.3894 49.3348 81.1267 48.4341 81.0016 47.4334C80.9015 46.4077 80.8515 45.3695 80.8515 44.3188V8.51922Z" fill="url(#paint2_linear)"/>
<path d="M103.367 23.6046C103.367 22.5539 103.417 21.5282 103.517 20.5275C103.642 19.5268 103.905 18.6387 104.305 17.8631C104.705 17.0626 105.281 16.4247 106.031 15.9493C106.782 15.449 107.795 15.1988 109.071 15.1988C110.347 15.1988 111.36 15.449 112.11 15.9493C112.861 16.4247 113.436 17.0626 113.837 17.8631C114.237 18.6387 114.487 19.5268 114.587 20.5275C114.712 21.5282 114.775 22.5539 114.775 23.6046V44.3188C114.775 45.3695 114.712 46.4077 114.587 47.4334C114.487 48.4341 114.237 49.3348 113.837 50.1353C113.436 50.9108 112.861 51.5363 112.11 52.0116C111.36 52.4869 110.347 52.7246 109.071 52.7246C107.795 52.7246 106.782 52.4869 106.031 52.0116C105.281 51.5363 104.705 50.9108 104.305 50.1353C103.905 49.3348 103.642 48.4341 103.517 47.4334C103.417 46.4077 103.367 45.3695 103.367 44.3188V23.6046Z" fill="url(#paint3_linear)"/>
<path d="M69.4245 5.80864C69.4245 9.01666 66.8239 11.6173 63.6159 11.6173C60.4079 11.6173 57.8072 9.01666 57.8072 5.80864C57.8072 2.60062 60.4079 0 63.6159 0C66.8239 0 69.4245 2.60062 69.4245 5.80864Z" fill="url(#paint4_linear)"/>
<path d="M115 5.80864C115 9.01666 112.399 11.6173 109.191 11.6173C105.983 11.6173 103.383 9.01666 103.383 5.80864C103.383 2.60062 105.983 0 109.191 0C112.399 0 115 2.60062 115 5.80864Z" fill="url(#paint5_linear)"/>
<defs>
<linearGradient id="paint0_linear" x1="3.29528" y1="5.66402e-06" x2="118.574" y2="52.7246" gradientUnits="userSpaceOnUse">
<stop stop-color="#5647FF"/>
<stop offset="1" stop-color="#713AEF"/>
</linearGradient>
<linearGradient id="paint1_linear" x1="3.29528" y1="5.66402e-06" x2="118.574" y2="52.7246" gradientUnits="userSpaceOnUse">
<stop stop-color="#5647FF"/>
<stop offset="1" stop-color="#713AEF"/>
</linearGradient>
<linearGradient id="paint2_linear" x1="3.29528" y1="5.66402e-06" x2="118.574" y2="52.7246" gradientUnits="userSpaceOnUse">
<stop stop-color="#5647FF"/>
<stop offset="1" stop-color="#713AEF"/>
</linearGradient>
<linearGradient id="paint3_linear" x1="3.29528" y1="5.66402e-06" x2="118.574" y2="52.7246" gradientUnits="userSpaceOnUse">
<stop stop-color="#5647FF"/>
<stop offset="1" stop-color="#713AEF"/>
</linearGradient>
<linearGradient id="paint4_linear" x1="3.29528" y1="5.66402e-06" x2="118.574" y2="52.7246" gradientUnits="userSpaceOnUse">
<stop stop-color="#5647FF"/>
<stop offset="1" stop-color="#713AEF"/>
</linearGradient>
<linearGradient id="paint5_linear" x1="3.29528" y1="5.66402e-06" x2="118.574" y2="52.7246" gradientUnits="userSpaceOnUse">
<stop stop-color="#5647FF"/>
<stop offset="1" stop-color="#713AEF"/>
</linearGradient>
</defs>
</svg>
