<svg width="600" height="280" viewBox="0 0 600 280" fill="none" xmlns="http://www.w3.org/2000/svg">
<path d="M-0.00012207 51.1999C-0.00012207 33.2783 -0.00012207 24.3174 3.48767 17.4722C6.55562 11.4511 11.451 6.55568 17.4722 3.48773C24.3174 -6.10352e-05 33.2782 -6.10352e-05 51.1999 -6.10352e-05H508.8C526.722 -6.10352e-05 535.682 -6.10352e-05 542.528 3.48773C548.549 6.55568 553.444 11.4511 556.512 17.4722C560 24.3174 560 33.2783 560 51.1999V194.204C560 203.012 560 207.416 560.909 211.606C561.715 215.323 563.047 218.906 564.865 222.247C566.915 226.013 569.792 229.347 575.546 236.016L586.108 248.257C594.819 258.351 599.175 263.399 599.291 267.675C599.391 271.39 597.765 274.943 594.885 277.294C591.572 280 584.906 280 571.572 280H504.5H51.1999C33.2782 280 24.3174 280 17.4722 276.512C11.451 273.444 6.55562 268.549 3.48767 262.528C-0.00012207 255.682 -0.00012207 246.722 -0.00012207 228.8V51.1999Z" fill="url(#paint0_linear)"/>
<defs>
<linearGradient id="paint0_linear" x1="571" y1="207.444" x2="-0.000122964" y2="207.444" gradientUnits="userSpaceOnUse">
<stop stop-color="white"/>
<stop offset="1" stop-color="white" stop-opacity="0"/>
</linearGradient>
</defs>
</svg>
